
        <svg xmlns="http://www.w3.org/2000/svg" xmlns:xlink="http://www.w3.org/1999/xlink" version="1.1" width="3196.72131147541" height="770.6926559000271" viewBox="0 0 3196.72131147541 770.6926559000271">
			
			<g transform="scale(9.836065573770492) translate(10, 10)">
				<defs id="SvgjsDefs1542"/><g id="SvgjsG1543" featureKey="symbolFeature-0" transform="matrix(1.2828917962429633,0,0,1.2828917962429633,-16.578811113506074,-34.85143785481727)" fill="#000"><g xmlns="http://www.w3.org/2000/svg"><path d="M16.785,27.729c-1.745-0.816-3.862-1.089-3.862,1.617v40.985c0,2.498,1.909,2.844,3.874,1.685l27.77-19.994   c2.093-1.537,1.419-3.089-0.179-4.405L16.785,27.729z"/><rect x="50.927" y="28.349" width="10.715" height="42.863"/><rect x="72.359" y="28.349" width="10.718" height="42.863"/></g></g><g id="SvgjsG1544" featureKey="nameFeature-0" transform="matrix(1.1806733694108191,0,0,1.1806733694108191,109.85831961228251,-0.7981707190321448)" fill="#000"><path d="M25.52 40 l-3.2 -7.44 l-15.88 0 l-3.2 7.44 l-3.12 0 l12.56 -29.16 l3.48 0 l12.6 29.16 l-3.24 0 z M21.16 29.759999999999998 l-6.8 -15.76 l-6.76 15.76 l13.56 0 z M44.408 13.719999999999999 l0 26.28 l-3.04 0 l0 -26.28 l-9.76 0 l0 -2.88 l22.56 0 l0 2.88 l-9.76 0 z M70.21600000000001 28.6 l-6.2 0 l0 11.4 l-3.08 0 l0 -29.16 l9.76 0 c7.12 -0.04 10.24 4.24 10.24 8.76 c0 2.52 -0.96 4.72 -2.68 6.36 c-1.76 1.64 -4.6 2.64 -8.04 2.64 z M70.456 13.719999999999999 l-6.44 0 l0 12.04 l6.28 0 c2.6 0 4.64 -0.76 5.8 -1.96 c1.16 -1.16 1.72 -2.6 1.72 -4.12 c0 -2.84 -1.64 -5.96 -7.36 -5.96 z M88.224 40 l0 -29.16 l3.08 0 l0 26.28 l13.84 0 l0 2.88 l-16.92 0 z M133.352 40 l-3.2 -7.44 l-15.88 0 l-3.2 7.44 l-3.12 0 l12.56 -29.16 l3.48 0 l12.6 29.16 l-3.24 0 z M128.992 29.759999999999998 l-6.8 -15.76 l-6.76 15.76 l13.56 0 z M152.48 24.8 l9.32 -13.96 l3.48 0 l-11.28 16.84 l0 12.32 l-3.12 0 l0 -12.28 l-11.28 -16.88 l3.68 0 z"/></g>
			</g>
		</svg>
	